# xmcd
#
# Track frame offsets:
#	150
#	89998
#	130895
#	176165
#	215622
#	240501
#
# Disc length: 3866 seconds
#
# Revision: 1
# Processed by: cddbd v1.5.2PL0 Copyright (c) Steve Scherf et al.
# Submitted via: audiograbber 1.83.01
#
DISCID=580f1806
DTITLE=Grateful Dead - 79-04-22 Spartan Stadium, San Jose CA
DYEAR=1900
DGENRE=
TTITLE0=Drums
TTITLE1=The Other One
TTITLE2=Wharf Rat
TTITLE3=Around and Around
TTITLE4=US Blues
TTITLE5=Shakedown Street
EXTD=
EXTT0=
EXTT1=
EXTT2=
EXTT3=
EXTT4=
EXTT5=
PLAYORDER=
